<?xml version="1.0" encoding="UTF-8"?>
<svg id="Layer_1" data-name="Layer 1" xmlns="http://www.w3.org/2000/svg" viewBox="0 0 1291.8 430.69">
  <defs>
    <style>
      .cls-1 {
        fill: #74005f;
      }
    </style>
  </defs>
  <path class="cls-1" d="m1227.09,104.24c13.76,0,24.74,11.21,24.74,24.97s-10.99,25.08-24.86,25.08-24.97-11.1-24.97-25.08,11.21-24.97,24.97-24.97h.12Zm-.22,4.99c-10.43,0-18.87,9-18.87,20.09s8.43,19.98,18.97,19.98c10.55.12,19.09-8.77,19.09-19.98s-8.54-20.09-19.09-20.09h-.11Zm-4.22,34.52h-5.88v-27.74c2.22-.34,4.66-.78,8.88-.78,4.77,0,7.65.78,9.54,2.22,1.55,1.22,2.44,3.11,2.44,5.99,0,3.33-2.33,5.66-5.32,6.44v.22c2.44.45,3.99,2.67,4.44,6.77.56,4.33,1.11,5.99,1.55,6.88h-6.1c-.66-1-1.11-3.44-1.66-7.21-.45-3-2.22-4.22-5.22-4.22h-2.66v11.43Zm0-15.99h2.78c3.44,0,6.1-1.11,6.1-4,0-2.33-1.67-4.1-5.66-4.1-1.44,0-2.44,0-3.22.12v7.99Z"/>
  <g>
    <path class="cls-1" d="m415.53,205.58c0-.09,0-.18.02-.26-3.46,16.83-13.38,73.49,4.47,96.35,4.94,6.33,11.66,9.84,19.44,10.17,33.96,1.42,55.89-47.9,58.28-53.53-1.02,2.4-9.98-27.81-20.14-6.03-5.96,11.92-21.49,39.43-37.28,38.77-1.41-.05-2.55-.44-3.91-2.18-4.11-5.27-5.84-16.65-5.84-30.39,0-10.3,1.21-21.78,2.86-33.15m-17.92-19.74c1.01-4.2,5.48-9.83,11.97-8.36,6.49,1.47,9.42,6.69,8.44,12.29-.89,5.08-1.72,10.47-2.49,15.8"/>
    <path class="cls-1" d="m427.23,142.67c8.11,0,15.21-7.36,15.85-16.43.63-9.06-5.44-16.42-13.55-16.42s-15.22,7.36-15.86,16.42c-.63,9.08,5.44,16.43,13.56,16.43h0Z"/>
    <path class="cls-1" d="m791.37,206.26c8.12,0,15.21-7.36,15.86-16.43.62-9.06-5.45-16.42-13.55-16.42s-15.22,7.36-15.86,16.42c-.63,9.08,5.44,16.43,13.56,16.43h0Z"/>
    <path class="cls-1" d="m678.55,58.91c-.15-.91-.36-2.04-.4-2.51-.43-5.73-5.43-10.02-11.16-9.59-5.46.42-9.61,4.98-9.61,10.36,0,.26,0,.54.03.8.22,2.92,1.33,8.59,3.27,17.63-30.87,37.13-50.28,114.01-50.28,183.68,0,28.64,3.26,56,10.32,78.75,11.09,35.74,28.71,46.51,41.54,49.24,15.8,3.37,30.79-4.15,38.64-13.08,11.94-13.59,16.77-38.2,16.77-70.07s-4.46-67.25-11.27-107.4c25.77-.98,56.05-10.17,75.8-28.29,14.6-13.38,23.17-37.61,23.17-61.58,0-8.41-1.05-16.78-3.27-24.64-7.07-25.02-24.46-41.4-48.96-46.14-25.71-4.97-55.41,9-74.58,22.83Zm-11.96,308.01c-10.45-2.22-19.68-14.67-26-35.05-6.47-20.85-9.45-46.24-9.45-72.93,0-56.69,13.54-118.92,35.53-155.92,3.93,17.9,9.12,42.37,14.22,69.78-.06-.03-.16-.03-.22-.07-5.19-2.48-11.39-.28-13.87,4.9-.7,1.45-1.03,2.98-1.03,4.48,0,3.88,2.18,7.61,5.92,9.4,3.81,1.82,8.32,3.17,13.28,4.1,6.5,38.18,11.79,78.62,11.79,110.61,0,24.98-3.2,44.77-11.5,54.23-3.73,4.24-11.15,8.07-18.67,6.46Zm82.58-310.42c21,4.06,29.48,19.3,32.89,31.38,1.75,6.2,2.53,12.65,2.53,19.01,0,19.21-7.15,37.65-16.47,46.2-16.66,15.28-44.37,22.57-65.35,22.94-5.24-28.39-11.47-58.08-18.09-88.01-.48-2.19-.94-4.27-1.41-6.39,14.25-12.59,44.24-29.32,65.9-25.13Z"/>
    <path class="cls-1" d="m421.62,335.81c-4.4-3.68-10.97-3.1-14.65,1.3-16.74,19.99-35.61,30.18-57.68,31.15-42.36,1.87-98-31.34-165.37-98.71-7.7-7.7-15.26-14.14-22.71-19.91,66.76-51.64,136.24-148.65,143.55-176.64.23-.88.34-1.76.34-2.64,0-4.62-3.1-8.84-7.78-10.06-5.56-1.46-11.24,1.88-12.7,7.44-5.64,21.59-73.11,117.16-137.29,166.23,5.57-72.9-7.95-122.81-25.09-165.58-2.14-5.34-8.2-7.93-13.53-5.79-5.33,2.14-7.92,8.2-5.79,13.53,15.81,39.46,28.34,85.46,23.89,152.31-29.25-13.25-54.04-12.52-69.84-5.15-12.7,5.92-19.69,16.19-18.71,27.47.57,6.52,5.14,22.55,35.26,30.63,13.73,3.68,29.84,1.3,47.93-6.88-4.58,28.32-11.86,59.89-22.61,95.52-1.66,5.51,1.45,11.31,6.96,12.97,5.5,1.66,11.31-1.46,12.97-6.96,12.94-42.9,21.04-80.24,25.49-113.24,7.99,5.81,16.32,12.87,24.93,21.48,72.68,72.68,131.89,106.96,181,104.79,27.83-1.23,52.3-14.2,72.71-38.58,3.69-4.4,3.11-10.97-1.3-14.66Zm-342.69-74.54c-14.16-3.79-19.67-9.46-19.92-12.33-.15-1.69,1.91-4.53,6.77-6.8,9.58-4.46,30.55-5.73,57.74,7.97-18.25,10.39-33.28,14.2-44.59,11.16Z"/>
    <path class="cls-1" d="m340.13,193.55c-21.32,5.51-44.64,44.06-60.15,74.67-1.45-15.54-3.12-28.87-4.54-39.69l-2.33-19.45c-.68-5.7-5.89-10.07-11.6-9.39-5.71.68-9.81,5.57-9.12,11.27l2.42,20.27c2.47,18.92,5.86,44.83,7.08,78.87.18,4.89,3.74,9,8.56,9.87,4.82.87,9.59-1.75,11.46-6.28,24.95-60.61,55.67-101.86,64.19-100.09,5.72,4.53,3.17,21.48,1.13,35.1-3.38,22.57-7.6,50.66,15.2,62.05,10.43,5.22,18.8,3.36,23.98.88,16-7.65,21.47-30.79,22.05-33.4,1.23-5.6-2.32-11.12-7.92-12.37-5.6-1.24-11.15,2.3-12.41,7.9-1.42,6.33-5.8,16.78-10.71,19.1-.65.31-2.17,1.04-5.7-.72-8.61-4.3-7.05-19.43-3.92-40.34,3.13-20.86,6.36-42.42-8.39-54.22-5.48-4.38-12.33-5.8-19.29-4.01Z"/>
    <path class="cls-1" d="m601.12,148.82c-1.32-3.97-9.04-8.15-13.66-5.29-4.39,2.72-36.34,10.18-83.96,13.76,1.01-32.94,3.41-68.55,7.88-90.9,1.13-5.64-2.53-11.12-8.16-12.24-5.63-1.13-11.12,2.53-12.24,8.16-4.79,23.93-7.31,61.82-8.32,96.28-42.52,2.24-60.38.6-68.61-1.41-9.03-2.21-12.56,4.19-13,5.07-.44.88-3.53,7.72,3.31,13.01,5.86,4.54,31.58,6.47,77.87,4-.07,5.26-.1,10.34-.1,15.15l-.02,6.74c-.18,44.11,1.15,88.57,19.19,105.15,5.43,4.99,12.1,7.29,19.31,6.65,34.65-3.06,54.25-59.44,56.37-65.85,1.8-5.45-1.16-11.33-6.61-13.14-5.45-1.8-11.34,1.15-13.15,6.6-5.39,16.22-21.88,50.2-38.44,51.66-1.19.1-2.12-.07-3.4-1.24-12.78-11.76-12.56-66.41-12.47-89.74l.02-6.83c0-5.21.04-10.74.12-16.46,1.27-.09,2.48-.17,3.77-.26,61.92-4.63,83.3-12.78,88.37-14.77,5.07-1.99,8.1-7.65,5.95-14.1Z"/>
    <path class="cls-1" d="m773.77,226.88c-8.96,33.9-8.67,57.22.9,71.27,5.33,7.84,13.47,12.61,23.54,13.8,31.59,3.72,46.15-30.49,46.75-31.95,2.19-5.29-.31-11.33-5.6-13.55-5.28-2.22-11.37.28-13.61,5.55-.1.21-9.19,21.17-25.12,19.3-5.29-.62-7.47-2.92-8.78-4.84-3.31-4.87-7.46-18.4,2.02-54.24,1.47-5.55-1.84-11.25-7.4-12.72-5.55-1.47-11.24,1.84-12.71,7.4Z"/>
    <path class="cls-1" d="m841.52,213.33c-11.42,11.47-17,26.46-16.16,43.33,1.47,29.29,21.69,49.31,54.07,53.55,28.67,3.76,64.38-7.04,72.09-31.03,1.75-5.47-1.25-11.33-6.73-13.09-5.47-1.76-11.33,1.25-13.09,6.72-3.32,10.32-25.7,19.89-49.57,16.76-12.9-1.69-34.71-8.35-36-33.96-.56-11.01,2.85-20.3,10.13-27.61,9.63-9.69,25.05-14.45,34.67-14.01,5.6.26,7.41,3.7,7.99,5.73.75,2.64.37,6.28-3.01,8.6-4.74,3.26-5.93,9.73-2.68,14.47,3.26,4.73,9.73,5.93,14.47,2.68,10.11-6.95,14.62-19.6,11.22-31.47-3.44-12.04-14.05-20.2-27.05-20.79-14.46-.66-35.63,5.3-50.37,20.12Z"/>
    <path class="cls-1" d="m1083.6,271.3c-8.89-7.37-15.61-.43-19.51,3.9s-18.21,15.82-27.53,15.82c-15.39-.43-25.14-11.92-47.04-37.28,44-13.87,54.62-32.08,61.34-44.65,6.72-12.57-1.08-18.21-4.55-19.29-3.47-1.08-9.97-1.73-13.66,8.67-3.68,10.4-13.44,19.94-29.48,27.96-15.47,7.74-25.68,9.01-33.19,9.08-.18-2.24-.36-4.48-.53-6.71.62-.58,1.38-.97,1.86-1.72,14.9-23.24,44.5-88.04,44.5-133.01,0-6.68-.65-12.92-2.11-18.52-2.93-11.3-8.87-19.43-17.65-24.15-.62-.34-1.27-.6-1.94-.81-13.74-4.12-25.25-2.87-34.21,3.75-17.69,13.06-17.92,42.3-18.06,59.77l-.12,6.93c-.88,17.53,11.64,167.5,13.07,184.53.48,5.73,5.51,9.98,11.24,9.5,5.43-.46,9.54-5.01,9.54-10.36,0-.29-.01-.59-.04-.88-1-11.93-2.09-25.06-3.18-38.62,6.5,7.78,15.82,18.82,18.69,21.69,4.55,4.55,19.29,21.46,36.42,24.28,17.12,2.82,27.96-4.34,34.68-8.02,6.29-3.9,20.81-15.61,22.98-20.81,1.3-2.6,1.52-7.37-1.52-11.05Zm-121.09-149.22l.15-7.81c.1-11.79.29-36.31,9.61-43.19,3.16-2.34,8.15-2.47,14.56-.79,3.13,1.99,5.41,5.32,6.74,10.47,1.01,3.87,1.46,8.34,1.46,13.26,0,27.38-14.27,68.54-28.37,98.08-2.42-32.78-4.19-59.78-4.19-68.36,0-.67,0-1.23.03-1.67Z"/>
    <path class="cls-1" d="m1209.97,250.71c-12.42-5.2-15.17,6.5-16.18,8.96-7.14,16.37-28.11,25.5-35.74,28.56,6.98-20.5.67-45.67-10.24-56.57-7.35-7.35-12.16-27.42-10.2-33.29,2.12-6.37-.8-11.47-4.65-13.68-9.06-5.24-11.32-4.14-60.73,51.54l-6.58,7.4c-3.82,4.29-3.45,10.89.84,14.71,4.29,3.81,10.84,3.45,14.67-.84l6.64-7.46c6.6-7.44,20.06-22.59,30.57-33.79,2.65,11.55,7.93,23.31,14.73,30.11,3.92,3.92,7.26,13.51,7.26,23.38,0,4.71-.76,9.48-2.57,13.74-3.58,8.41-10.59,12.39-21.39,12.16-28.05-.58-33.09-12.46-33.14-12.58-2.05-5.16-7.88-8.05-13.13-6.25-5.26,1.8-8.26,7.16-6.71,12.49.77,2.68,8.87,26.23,52.54,27.15,1.81.04,3.53-.09,5.24-.2,60.59-.58,85.14-36.73,87.6-40.7,2.6-4.19,11.85-20.08,1.15-24.85Zm-92.42-56.53s-.02-.05-.02-.07c0-.29.1-.53.12-.81-.02.3-.05.62-.1.89Z"/>
  </g>
</svg>