<?xml version="1.0" encoding="UTF-8"?>
<svg id="Layer_1" data-name="Layer 1" xmlns="http://www.w3.org/2000/svg" viewBox="0 0 1291.8 430.69">
  <defs>
    <style>
      .cls-1 {
        fill: #20cec1;
      }

      .cls-2 {
        fill: #2b4a91;
      }
    </style>
  </defs>
  <g>
    <circle class="cls-1" cx="1061.85" cy="364.62" r="21.01"/>
    <g>
      <path class="cls-1" d="m1109.08,364.79c0,6.45,4.21,10.08,9.14,10.08s7.39-3.26,8.19-6.02l8.48,2.83c-1.59,5.94-7.18,12.03-16.67,12.03-10.51,0-18.78-7.98-18.78-18.92s8.12-18.92,18.49-18.92c9.72,0,15.23,6.02,16.75,12.04l-8.63,2.9c-.87-2.97-3.12-6.02-7.9-6.02s-9.06,3.55-9.06,10.01Z"/>
      <path class="cls-1" d="m1179.26,364.79c0,10.95-8.05,18.92-18.71,18.92s-18.7-7.98-18.7-18.92,8.05-18.92,18.7-18.92,18.71,7.9,18.71,18.92Zm-9.64,0c0-6.74-4.35-10.15-9.06-10.15s-9.06,3.41-9.06,10.15,4.35,10.15,9.06,10.15,9.06-3.41,9.06-10.15Z"/>
      <path class="cls-1" d="m1189.77,382.63v-35.67h9.21v4.35c1.96-3.48,6.52-5.37,10.44-5.37,4.86,0,8.77,2.1,10.59,5.94,2.83-4.35,6.6-5.94,11.31-5.94,6.6,0,12.9,3.99,12.9,13.56v23.13h-9.35v-21.17c0-3.84-1.89-6.74-6.31-6.74-4.13,0-6.6,3.19-6.6,7.03v20.88h-9.57v-21.17c0-3.84-1.96-6.74-6.31-6.74s-6.67,3.12-6.67,7.03v20.88h-9.64Z"/>
    </g>
  </g>
  <g>
    <path class="cls-1" d="m247.24,144.4c5.13-5.44,10.8-10.3,16.92-14.52.28-.19.43-.54.39-.88-.4-3.22-.61-5.59-.7-6.79-.04-.5-.48-.88-.98-.85l-39.02,2.22c-.52.03-.91.46-.88.97.69,12.15,2.66,26.78,6.47,41.91.21.83,1.32.96,1.72.21,4.36-8.08,9.76-15.56,16.08-22.26Z"/>
    <path class="cls-1" d="m498.41,131.73c-15.72-7.37-33.76-10.47-52.57-7.9-18.59,2.54-36.5,10.94-50.62,23.55-12.51,11.17-19.91,24.6-26.55,39.15h0c-.06.15-.13.28-.2.43-.03.06-.05.12-.08.18-11.07,25.66-28,35.44-53.42,28.51-.03,0-.07-.02-.1-.03-4.94-1.69-9.55-4.17-13.78-7.23-.41-.3-.98-.02-.98.49v39.55c0,.35.17.66.48.82,6.21,3.26,17.6,8.3,30.41,9.5,14.23,1.34,30.55.16,48.14-13.98,5.77-4.64,10.72-10.19,15.03-16.21,1.65-2.31,3.43-4.93,5.08-7.65,4.84-8.23,9.01-16.97,13.24-24.87,8.21-15.34,18.91-26.16,37.18-28.75,3.16-.45,6.37-.63,9.56-.63,28.38,0,45.13,24.39,45.13,50.8,0,33.71-21.75,50.75-45.31,50.75-5.06,0-10.03-.82-14.72-2.42-.19-.07-.38-.15-.58-.22-1.3-.46-2.58-.99-3.83-1.58-.17-.08-.35-.15-.53-.24-1.33-.64-2.62-1.37-3.88-2.15-.2-.13-.41-.25-.61-.38-1.24-.8-2.44-1.67-3.6-2.61-.18-.15-.36-.3-.54-.45-1.17-.97-2.3-2.01-3.37-3.12-.12-.13-.24-.27-.36-.4-1.1-1.16-2.15-2.39-3.14-3.7-.01-.02-.03-.03-.04-.05,0,0,0,0,0,0-.67-.89-1.3-1.82-1.91-2.77-.12-.19-.23-.39-.35-.58-.45-.73-.89-1.48-1.31-2.25-.21-.4-.42-.81-.63-1.22-.29-.57-.57-1.14-.84-1.73-.25-.56-.5-1.12-.73-1.69-.18-.43-.35-.88-.52-1.32-.46-1.23-.9-2.48-1.28-3.78-.23-.76-1.24-.89-1.67-.23-1.13,1.73-2.32,3.5-3.61,5.29-5.69,7.95-12.05,14.78-18.88,20.28-3.88,3.12-7.73,5.73-11.53,7.94-.46.27-.61.87-.31,1.31.59.89,2.67,3.93,3.02,4.41.46.64,3.12,4.06,4,5.11.65.78,1.3,1.56,1.98,2.31.15.17.29.35.44.51.16.17.32.33.48.5.55.59,1.13,1.15,1.7,1.73.79.8,1.56,1.62,2.38,2.39.2.19.4.38.6.56,1.1,1.02,2.22,2.01,3.37,2.98.21.18.41.37.63.55.54.44,1.11.84,1.65,1.27.95.75,1.92,1.47,2.9,2.18.95.68,1.91,1.35,2.89,2,1.13.75,2.29,1.47,3.46,2.17.71.43,1.42.86,2.14,1.26,1.52.85,3.08,1.65,4.65,2.42.63.31,1.26.62,1.9.91,1.73.79,3.49,1.52,5.28,2.21.3.12.59.26.89.37,0-.01.01-.02.02-.03,10.55,3.94,22.11,6.09,34.39,6.09,53.29,0,93.53-39.87,93.53-94.61,0-38.37-22.33-70.8-54.16-85.72Z"/>
  </g>
  <g>
    <path class="cls-2" d="m1209.27,128.21h34.02c.51,0,.93.42.93.93v40.91c0,.51-.42.93-.93.93h-34.02c-.51,0-.93.42-.93.93v73.74c0,15.59,7.25,20.66,21.03,20.66,5.09,0,10.74-.56,13.76-1.18.58-.12,1.1.32,1.1.91v38.07c0,.38-.22.72-.57.86-4.52,1.79-13.07,4.12-26.62,4.12-34.8,0-56.55-20.66-56.55-55.1v-82.08c0-.51-.42-.93-.93-.93h-30.4c-.51,0-.93-.42-.93-.93v-40.91c0-.51.42-.93.93-.93h8.13c18.85,0,27.55-12.32,27.55-28.28v-24.08c0-.51.42-.93.93-.93h41.64c.51,0,.93.42.93.93v51.42c0,.51.42.93.93.93Z"/>
    <path class="cls-2" d="m174.84,253.91c-.39-.31-.94-.26-1.27.12-6.77,7.77-17.18,13.76-32.1,13.76-24.65,0-45.68-18.13-45.68-50.39s20.66-50.03,45.31-50.03c14.47,0,24.3,5.57,30.77,13.27.32.39.88.45,1.28.13l34.47-27.5c.41-.33.48-.94.14-1.34-14.15-16.79-36.63-29.14-67.75-29.14-51.84,0-92.44,39.51-92.44,94.61s41.33,94.61,93.89,94.61c30.67,0,53.17-12.7,67.41-29.7.34-.4.27-1.01-.14-1.34l-33.91-27.05Z"/>
    <path class="cls-2" d="m695.6,253.91c-.39-.31-.94-.26-1.27.12-6.77,7.77-17.18,13.76-32.1,13.76-24.65,0-45.68-18.13-45.68-50.39s20.66-50.03,45.31-50.03c14.47,0,24.3,5.57,30.77,13.27.32.39.88.45,1.28.13l34.47-27.5c.41-.33.48-.94.14-1.34-14.15-16.79-36.63-29.14-67.75-29.14-51.84,0-92.44,39.51-92.44,94.61s41.33,94.61,93.89,94.61c30.67,0,53.17-12.7,67.41-29.7.34-.4.27-1.01-.14-1.34l-33.91-27.05Z"/>
    <path class="cls-2" d="m331.58,126.86c-9.51-.02-19.11.18-28.41,2.38-8.55,2.02-16.79,5.32-24.38,9.74-7.48,4.35-14.31,9.79-20.25,16.08-5.95,6.3-10.98,13.46-14.89,21.19-3.99,7.89-6.79,16.36-8.29,25.07-.87,5.04-1.3,10.16-1.3,15.27,0,0,0,79.65,0,89.11,0,.51.42.92.93.92h46.35c.51,0,.93-.42.93-.93v-80.63c0-38.43,21.39-50.39,46.04-50.39,4.05,0,8.42.32,13.39,1.24.57.11,1.11-.32,1.11-.9v-46.63c0-.48-.35-.88-.83-.93-4.51-.5-9.29-.59-10.41-.59Z"/>
    <path class="cls-2" d="m1075.74,244.3c-.49-.39-1.21-.19-1.44.4-5.98,15.31-18.24,25.99-40.15,25.99-23.58,0-43.29-16.56-44.89-39.6-.04-.54.4-1.01.95-1.01h125.73c.49,0,.89-.36.93-.85.17-2.23.67-8.25.67-14.02,0-57.28-32.99-92.44-88.09-92.44-45.68,0-87.73,36.97-87.73,93.89,0,60.18,43.14,95.34,92.08,95.34,36.05,0,61.56-17.4,74.54-40.7.22-.4.12-.91-.24-1.2l-32.35-25.81Zm-45.57-82.37c27.03,0,38.71,16.75,39.82,34.17.03.54-.41,1-.95,1h-77.72c-.55,0-1-.48-.95-1.03,1.58-16.07,15.3-34.14,39.79-34.14Z"/>
    <path class="cls-2" d="m940.16,302.63c-26.43-29.53-25.53-63.33-25.14-100.1v-.2c0-.8,0-8.13,0-8.13,0-39.15-21.02-70.69-66.34-70.69-16.27,0-34.85,5.29-46.59,17.75-.59.62-1.62.24-1.62-.62V45.05c0-.51-.42-.93-.93-.93h-46.35c-.51,0-.93.42-.93.93v260.59c0,.51.42.93.93.93h46.35c.51,0,.93-.42.93-.93v-100.92c0-21.02,12.15-37.71,33.35-37.71,23.2,0,32.99,15.59,32.99,35.53l.19,29.42c1.66,125.47,117.13,154.16,154.35,154.63.52,0,.93-.42.93-.94v-41.22c0-.48-.36-.87-.84-.92-32.02-3.04-59.61-16.67-81.28-40.88Z"/>
  </g>
</svg>